{"title":"Blackhat.2015.WEB.RIP.CAM.AUDIO.XviD.AC3-FANTA","uid":11777230,"size":2025255608,"categoryP":"video","categoryS":"movies","magnet":"?xt=urn:btih:48bd22414093ab8dedf834c63bb785a11b1ec070&amp;dn=Blackhat.2015.WEB.RIP.CAM.AUDIO.XviD.AC3-FANTA&amp;tr=udp%3A%2F%2Ftracker.openbittorrent.com%3A80&amp;tr=udp%3A%2F%2Fopen.demonii.com%3A1337&amp;tr=udp%3A%2F%2Ftracker.coppersurfer.tk%3A6969&amp;tr=udp%3A%2F%2Fexodus.desync.com%3A6969","seeders":120,"leechers":20,"uploader":"xxxlavalxxx","files":4,"time":1427364962,"description":"[img]http://i.imgur.com/GV7WRb8.jpg[/img]\n &lt;a href=&quot;\nhttp://www.imdb.com/title/tt2717822/&quot; rel=&quot;nofollow&quot; target=&quot;_NEW&quot;&gt;\nhttp://www.imdb.com/title/tt2717822/&lt;/a&gt;\n\n\nA furloughed convict and his American and Chinese partners hunt a high-level cybercrime network from Chicago to Los Angeles to Hong Kong to Jakarta.\n\nDirector: Michael Mann\nWriter: Morgan Davis Foehl\nStars: Chris Hemsworth, Viola Davis, Wei Tang\nGenres: Action | Crime | Drama | Mystery | Thriller\nCountry: USA\nLanguage: English | Mandarin | Spanish\n\n\nFormat                                   : AVI\nFormat/Info                              : Audio Video Interleave\nFormat profile                           : OpenDML\nFormat settings                          : rec\nFile size                                : 1.87 GiB\nDuration                                 : 2h 12mn\nOverall bit rate                         : 2 013 Kbps\nWriting application                      : AVI-Mux GUI 1.17.8.3, Feb 16 201019:42:50\n\nVideo\nID                                       : 0\nFormat                                   : MPEG-4 Visual\nFormat profile                           : Advanced Simple@L5\nFormat settings, BVOP                    : 3\nFormat settings, QPel                    : No\nFormat settings, GMC                     : No warppoints\nFormat settings, Matrix                  : Default (MPEG)\nCodec ID                                 : XVID\nCodec ID/Hint                            : XviD\nDuration                                 : 2h 12mn\nBit rate                                 : 1 816 Kbps\nWidth                                    : 720 pixels\nHeight                                   : 304 pixels\nDisplay aspect ratio                     : 2.35:1\nFrame rate                               : 23.976 fps\nColor space                              : YUV\nChroma subsampling                       : 4:2:0\nBit depth                                : 8 bits\nScan type                                : Progressive\nCompression mode                         : Lossy\nBits/(Pixel*Frame)                       : 0.346\nStream size                              : 1.69 GiB (90%)\nWriting library                          : XviD 1.2.1 (UTC 2008-12-04)\n\nAudio\nID                                       : 1\nFormat                                   : AC-3\nFormat/Info                              : Audio Coding 3\nMode extension                           : CM (complete main)\nFormat settings, Endianness              : Big\nCodec ID                                 : 2000\nDuration                                 : 2h 12mn\nBit rate mode                            : Constant\nBit rate                                 : 192 Kbps\nChannel(s)                               : 2 channels\nChannel positions                        : Front: L R\nSampling rate                            : 48.0 KHz\nBit depth                                : 16 bits\nCompression mode                         : Lossy\nStream size                              : 183 MiB (10%)\nAlignment                                : Aligned on interleaves\nInterleave, duration                     : 64 ms (1.53 video frames)\nInterleave, preload duration             : 192 ms\nTitle                                    : Blackhat 2015-New\n\n &lt;a href=&quot;\nhttp://extraimago.com/image/aYb&quot; rel=&quot;nofollow&quot; target=&quot;_NEW&quot;&gt;\nhttp://extraimago.com/image/aYb&lt;/a&gt; &lt;a href=&quot;\nhttp://extraimago.com/image/aY3&quot; rel=&quot;nofollow&quot; target=&quot;_NEW&quot;&gt;\nhttp://extraimago.com/image/aY3&lt;/a&gt; &lt;a href=&quot;\nhttp://extraimago.com/image/aY9&quot; rel=&quot;nofollow&quot; target=&quot;_NEW&quot;&gt;\nhttp://extraimago.com/image/aY9&lt;/a&gt; &lt;a href=&quot;\nhttp://extraimago.com/image/aYM&quot; rel=&quot;nofollow&quot; target=&quot;_NEW&quot;&gt;\nhttp://extraimago.com/image/aYM&lt;/a&gt; &lt;a href=&quot;\nhttp://extraimago.com/image/aYU&quot; rel=&quot;nofollow&quot; target=&quot;_NEW&quot;&gt;\nhttp://extraimago.com/image/aYU&lt;/a&gt; &lt;a href=&quot;\nhttp://extraimago.com/image/aYz&quot; rel=&quot;nofollow&quot; target=&quot;_NEW&quot;&gt;\nhttp://extraimago.com/image/aYz&lt;/a&gt; &lt;a href=&quot;\nhttp://extraimago.com/image/aY0&quot; rel=&quot;nofollow&quot; target=&quot;_NEW&quot;&gt;\nhttp://extraimago.com/image/aY0&lt;/a&gt;","torrent":{"xt":"urn:btih:48bd22414093ab8dedf834c63bb785a11b1ec070","amp;dn":"Blackhat.2015.WEB.RIP.CAM.AUDIO.XviD.AC3-FANTA","amp;tr":["udp%3A%2F%2Ftracker.openbittorrent.com%3A80","udp%3A%2F%2Fopen.demonii.com%3A1337","udp%3A%2F%2Ftracker.coppersurfer.tk%3A6969","udp%3A%2F%2Fexodus.desync.com%3A6969"],"infoHash":"48bd22414093ab8dedf834c63bb785a11b1ec070","infoHashBuffer":{"type":"Buffer","data":[72,189,34,65,64,147,171,141,237,248,52,198,59,183,133,161,27,30,192,112]},"announce":[],"urlList":[]}}